<mxfile host="app.diagrams.net" modified="2023-05-19T15:39:58.736Z" agent="Mozilla/5.0 (Windows NT 10.0; Win64; x64) AppleWebKit/537.36 (KHTML, like Gecko) Chrome/100.0.4896.127 Safari/537.36" version="21.3.2" etag="xLVxo3FZ52R-qJBry_nO" type="github">
  <diagram name="PÃ¡gina-1" id="Lgrqy0EjbjffZ24weIXg">
    <mxGraphModel>
      <root>
        <mxCell id="0" />
        <mxCell id="1" parent="0" />
      </root>
    </mxGraphModel>
  </diagram>
</mxfile>
